<?xml version="1.0" encoding="UTF-8"?>
<svg id="Layer_1" data-name="Layer 1" xmlns="http://www.w3.org/2000/svg" viewBox="0 0 996.19 894.97">
  <defs>
    <style>
      .cls-1 {
        fill: #fff78f;
      }

      .cls-1, .cls-2, .cls-3, .cls-4 {
        stroke-miterlimit: 10;
      }

      .cls-1, .cls-2, .cls-4 {
        stroke: #f1f2f2;
      }

      .cls-2 {
        fill: #f8995c;
      }

      .cls-3 {
        fill: #fffef2;
        stroke: #231f20;
      }

      .cls-4 {
        fill: #ee304a;
      }
    </style>
  </defs>
  <g>
    <polygon class="cls-4" points="375.73 177.18 609.6 1.18 575.93 177.18 903.93 118.89 752.85 302.89 995.36 531.46 795.36 649.92 818.22 781.49 526.79 682.32 294.79 893.75 313.08 654.89 1.08 731.46 171.36 459.46 71.93 417.18 244.51 325.75 99.36 250.32 253.65 210.32 313.08 91.46 375.73 177.18"/>
    <polygon class="cls-2" points="396.13 217.92 558.2 95.96 534.87 217.92 762.17 177.53 657.47 305.04 825.52 463.43 686.93 545.52 702.77 636.7 500.81 567.97 340.04 714.49 352.72 548.97 136.51 602.03 254.51 413.54 185.61 384.23 305.2 320.88 204.62 268.61 311.53 240.89 352.72 158.52 396.13 217.92"/>
    <polygon class="cls-1" points="427.18 300.66 517.65 232.58 504.63 300.66 631.51 278.11 573.07 349.29 666.88 437.72 589.51 483.54 598.36 534.44 485.62 496.08 395.87 577.87 402.94 485.47 282.24 515.09 348.12 409.86 309.65 393.51 376.41 358.14 320.27 328.96 379.95 313.48 402.94 267.5 427.18 300.66"/>
  </g>
  <path class="cls-3" d="M213.65,224.04l-53.71,236.57,32,6.86,4.57-52.57,24,3.43,33.14,109.71,41.14,9.14-81.14-313.14ZM199.93,380.61l9.71-51.43,9.71,57.14-19.43-5.71Z"/>
  <polygon class="cls-3" points="253.65 261.75 294.79 408.89 351.93 357.75 334.79 313.18 302.79 335.32 281.08 224.04 253.65 261.75"/>
  <polygon class="cls-3" points="345.08 396.61 302.79 530.32 386.22 537.18 378.22 492.61 344.51 489.18 386.22 386.32 345.08 396.61"/>
  <polygon class="cls-3" points="337.08 224.04 364.51 362.32 407.93 336.04 420.98 554.32 484.51 565.75 460.51 329.18 514.22 329.18 540.51 188.61 337.08 224.04"/>
  <polygon class="cls-3" points="746.68 163.79 753.54 232.36 716.96 292.93 785.76 315.79 785.76 345.5 731.82 430.07 689.54 368.36 731.82 342.07 731.82 329.5 654.11 298.64 654.11 265.35 746.68 163.79"/>
  <polygon class="cls-3" points="643.36 360.61 599.93 391.46 621.65 596.04 662.79 588.04 662.79 553.75 662.79 512.61 677.65 564.04 719.93 572.04 666.22 459.74 719.93 418.89 693.65 327.46 650.22 413.18 643.36 360.61"/>
  <polygon class="cls-3" points="541.65 475.46 509.65 249.18 559.93 267.46 594.22 370.8 588.51 254.89 629.65 224.04 642.22 462.89 595.36 462.89 558.79 349.75 575.93 475.46 541.65 475.46"/>
  <path class="cls-3" d="M483.36,357.75l28.57,158.86,28.57,33.14-10.29-80,10.29-8,30.86,51.43,57.14,16-145.14-171.43ZM521.08,461.75l-11.43-52.86,30.86,36.2-19.43,16.67Z"/>
  <polygon class="cls-3" points="382.6 665.92 370.29 741.49 410.29 709.22 410.8 670.51 448.87 650.09 441.09 577.03 359.54 601.37 337.4 687.5 382.6 665.92"/>
  <path class="cls-3" d="M512.86,612.04l-40-12.57-30.86,12.57-17.81,70.86,48.67,45.71,45.71-13.71,9.71-51.63-15.43-51.23ZM487.2,672.68l-18.33,5.64-19.51-18.81,7.14-29.16,12.37-5.17,16.04,5.17,6.19,21.08-3.9,21.25Z"/>
  <path class="cls-3" d="M719.36,622.49l-40-12.57-30.86,12.57-17.81,70.86,48.67,45.71,45.71-13.71,9.71-51.63-15.43-51.23ZM714.58,699.82l-18.33,5.64-19.51-18.81,7.14-29.16,12.37-5.17,16.04,5.17,6.19,21.08-3.9,21.25Z"/>
  <polygon class="cls-3" points="540.51 596.04 588.51 652.32 575.93 773.75 610.22 747.46 654.11 554.32 606.79 565.75 607.93 609.92 575.93 565.75 540.51 596.04"/>
  <polygon class="cls-3" points="727.93 554.89 749.65 610.89 766.79 621.18 771.36 588.04 749.65 535.46 779.36 541.18 800.62 627.75 788.73 664.61 739.36 654.32 697.6 571.46 727.93 554.89"/>
  <polygon class="cls-3" points="800.62 526.89 845.65 513.18 851.36 642.32 834.22 642.32 800.62 526.89"/>
  <polygon class="cls-3" points="837.65 664.61 851.36 664.04 857.08 686.89 837.65 686.89 837.65 664.61"/>
  <polygon class="cls-3" points="868.51 513.18 890.22 625.17 914.22 625.17 914.22 513.18 868.51 513.18"/>
  <polygon class="cls-3" points="891.36 642.32 914.22 642.32 921.08 664.61 891.36 664.61 891.36 642.32"/>
</svg>